<svg xmlns="http://www.w3.org/2000/svg" width="512" height="512"><path fill="#8aadf4" d="m156.703 33.968-29.12.032-14.25 24.66 33.234 57.914-66.92-.185-28.198 49.912 249.487.013-28.894-49.747-68.076-.138Zm278.79 89.464L310.739 339.487l57.527-.15 34.16-58.886 95.044.3L512 255.515l-14.23-24.672-66.772-.173 33.622-57.864zM156.242 261.48l-28.634 49.896 33.92 59.025-47.783 82.16 14.586 25.202 28.483.011 33.538-57.738 33.3 58.049 57.323-.537z"/><path fill="#7dc4e4" d="m288.634 33.916-57.324.536L356.043 250.52l28.634-49.896-33.918-59.025 47.782-82.162-14.588-25.2-28.482-.011-33.538 57.738ZM201.263 172.48l-57.53.149-34.156 58.887-95.045-.3L0 256.452l14.231 24.67 66.774.177-33.623 57.862 29.128 49.375zm9.57 172.711 28.894 49.745 68.078.139 47.26 82.46 29.12-.03 14.252-24.66L365.2 394.93l66.924.186 28.194-49.912z"/></svg>
